Patient4_TMGait_0pt5_01_left_05_EMG.mot
version=1
nRows=16
nColumns=33
inDegrees=no
endheader
time	1LAddLong	2LGlutMax	3LGlutMed	4LIliopsoas	5LSemiMemb	6LBicFemLong	7LRecFem	8LVastMed	9LVastLat	10LGasMed	11LTibAnt	12lTibPost	13LPeroneusLong	14LSol	15LExtDigLong	16LFlexDigLong	17RAddLong	18RGlutMax	19RGlutMed	20RIliopsoas	21RSemiMemb	22RBicFemLong	23RRecFem	24RVastMed	25RVastLat	26RGasMed	27RTibAnt	28RTibPost	29RPeroneusLong	30RSol	31RExtDigLong	32RFlexDigLong
6.58	0.011902	-0.1648	-0.15457	0.009766	-0.004578	0.006256	0.10513	0.020447	-0.2095	0.008087	-0.10162	0.000153	0.040283	0.071106	0.1857	0.011292	0.012665	-0.22217	-0.31967	0.004272	0.044098	-0.27206	-0.25421	0.13306	-0.054016	0.021057	0.12878	0.003052	1.183	-0.006256	-0.002441	-0.000916
6.581	0.009308	-0.11093	-0.13962	0.001678	-0.001831	0.01297	0.12604	0.020142	-0.224	-0.000916	-0.072784	-0.005341	0.094757	0.047607	0.30197	0.019379	-0.016022	-0.21637	-0.16586	-0.035858	0.014954	-0.34698	-0.49774	0.067902	0.003967	0.033112	0.15869	0.000153	1.4285	0.007477	-0.003357	0
6.582	0.009918	-0.014191	-0.14343	0.012665	-0.007172	0.007782	0.14282	0.023651	-0.22339	-0.028076	-0.023651	-0.012665	0.18799	-0.007172	0.21088	0.014954	-0.014648	-0.20538	0.01297	0.001831	0.000916	-0.062561	-0.354	0.015411	0.021362	0.02121	0.32516	0.003967	0.86609	-0.074158	-0.004578	-0.012512
6.583	0.010529	0.024414	-0.15778	0.007935	-0.002899	0.005341	0.15595	0.020905	-0.2301	-0.029297	-0.069427	0.00351	0.29297	-0.022125	0.036469	0.008087	0.006409	-0.22339	0.16098	0.016174	-0.061188	-0.004883	-0.068817	-0.087433	0.035858	0.019226	0.22812	-0.011749	0.019379	0.046692	0.001373	-0.016022
6.584	0.00473	0.071106	-0.17868	0.016632	-0.006866	0.014954	0.15564	0.025635	-0.23682	-0.046082	0.027313	0.014954	0.29266	0.01358	-0.10101	0.013428	0.021667	-0.19455	0.21744	0.008698	-0.065765	-0.19592	0.17181	-0.035248	0.046387	0.003967	-0.34683	-0.026245	0.29434	-0.034485	-0.003204	-0.013123
6.585	0.016327	0.12634	-0.15121	-0.016632	-0.002594	0.024872	0.1738	0.020752	-0.24307	-0.015259	0.1564	-0.013275	0.14771	-0.03067	-0.16876	0.007477	0.019989	-0.12787	0.42633	-0.02121	-0.13351	-0.33081	0.22812	0.029907	0.009003	-0.013733	-0.27878	-0.01709	-0.7428	-0.058136	-0.007324	-0.009918
6.586	0.012512	0.1474	-0.11749	-0.005188	-0.003357	0.038147	0.18967	0.022888	-0.24567	0.016785	0.1738	-0.011902	0.019073	-0.06958	-0.47791	-0.005798	0.016632	-0.2417	0.24124	-0.02243	-0.20935	-0.45425	0.14069	-0.012665	-0.000458	-0.011444	-0.25162	0.013275	-0.96954	0.014038	-0.004578	-0.010376
6.587	0.015717	0.14969	-0.06958	0.01297	-0.005493	0.035553	0.19669	0.024719	-0.25238	0.035248	0.10162	-0.00473	-0.014343	-0.061646	-0.58929	-0.010223	-0.034485	-0.24384	0.21545	0.018311	-0.13123	-0.12512	-0.02655	0.12131	0.010223	-0.012665	-0.11047	0.015259	-0.60394	-0.093231	-0.001831	-0.007935
6.588	0.014343	0.19562	-0.10971	0.019073	-0.006409	0.037384	0.17364	0.023193	-0.26657	0.028229	-0.079193	-0.008698	-0.009308	-0.11139	-0.39124	-0.001678	-0.057526	-0.26047	-0.13534	0.007629	-0.076141	-0.008087	-0.04837	0.15289	0.000153	0.013275	-0.16449	0.042419	0.004425	-0.29587	-0.004425	-0.000153
6.589	0.011902	0.17838	-0.12451	0.00824	-0.00351	0.03067	0.15762	0.024567	-0.25085	0.033264	-0.24551	-0.001678	0.026855	-0.11917	-0.40802	-0.001373	-0.032349	-0.2945	-0.21347	0.003967	0.074921	-0.16708	0.029297	0.13504	-0.027161	0.003204	-0.10147	0.006256	0.4808	-0.026245	-0.005035	-0.001221
6.59	0.018768	0.18738	-0.1152	-0.014801	-0.014038	0.015106	0.12009	0.021057	-0.26215	0.016937	-0.31235	0.000305	0.046234	-0.081482	0.97183	-0.00824	-0.019531	-0.29251	-0.009155	-0.018311	0.02243	-0.1944	0.018616	0.10971	0.041809	-0.013123	-0.11383	-0.010834	0.2945	0.19486	-0.003662	0.002594
6.591	0.011902	0.18936	-0.1207	-0.001221	-0.007935	0.013275	0.11231	0.027313	-0.26398	-0.027161	-0.22034	-0.00824	0.065308	0.006256	0.41901	0.001678	-0.00412	-0.29404	-0.003357	-0.002747	0.097656	-0.21088	-0.000458	0.066223	-0.015564	-0.009613	-0.13977	-0.012512	0.11536	0.095825	-0.005493	-0.002289
6.592	0.019684	0.1767	-0.1236	-0.020905	-0.000916	-0.000305	0.062866	0.022125	-0.26077	-0.043793	-0.041351	0.00061	0.033264	0.14313	-0.043793	0.004425	0.019836	-0.26016	-0.18433	-0.018311	0.054016	-0.086212	0.084534	-0.026245	0.028992	-0.003052	-0.16129	-0.006256	-0.21545	0.037079	-0.006104	0.003357
6.593	0.019073	0.16098	-0.11749	0.00473	-0.000763	-0.010376	0.036469	0.021057	-0.27603	0.004425	0.11429	-0.007629	-0.006561	0.10315	-0.12344	-0.013885	0.018311	-0.22873	-0.31555	0.001068	-0.023499	0.035858	0.11047	-0.12207	-0.013428	-0.024414	-0.20996	-0.011902	-1.0313	0.12985	-0.006409	0.003357
6.594	0.016174	0.19562	-0.11459	0.000458	-0.00061	-0.019531	0.045013	0.027161	-0.27741	0.007935	0.12421	-0.00946	-0.012207	0.063629	-0.49789	-0.014343	0.016174	-0.1738	-0.12451	0.010223	-0.044403	0.054169	0.16724	-0.19577	-0.10727	-0.064392	-0.02655	-0.010529	-0.83344	0.14969	-0.004883	0.000458
6.595	0.018768	0.21057	-0.112	0.010376	-0.001984	-0.016785	0.042419	0.019989	-0.25864	0.005798	0.092163	-0.009308	0.041199	0.001068	-0.17059	-0.014954	0.016022	-0.13107	-0.13214	0.010529	-0.040588	0.027161	0.073547	-0.16403	-0.099945	-0.089569	0.043335	-0.008392	0.76813	0.062561	-0.002899	0.005035
